<svg width="132" height="126" viewBox="0 0 132 126" fill="none" xmlns="http://www.w3.org/2000/svg">
<mask id="mask0_975_2" style="mask-type:luminance" maskUnits="userSpaceOnUse" x="0" y="0" width="132" height="126">
<path d="M118.176 63.1716C118.176 32.5881 93.3845 7.79631 62.8011 7.79631C32.2176 7.79631 7.42578 32.5882 7.42578 63.1716C7.42578 93.755 32.2176 118.547 62.8011 118.547C93.3845 118.547 118.176 93.755 118.176 63.1716Z" fill="white" stroke="white" stroke-width="14" stroke-linejoin="round"/>
<path d="M103.217 95.5107L121.163 112.769" stroke="white" stroke-width="20" stroke-linecap="round" stroke-linejoin="round"/>
</mask>
<g mask="url(#mask0_975_2)">
<path d="M-5.60352 131.578L-5.60352 -24.7761L150.75 -24.7761L150.75 131.578L-5.60352 131.578Z" fill="#0088FF"/>
<path d="M89.6516 86.3286L72.2191 111.839L64.2952 99.9342L56.3713 111.839L38.9388 86.3286C8.82813 94.8321 8.82812 111.839 8.82812 145.003C8.82812 145.003 32.5997 161.867 59.5409 161.867H69.0495C95.9907 161.017 119.762 145.003 119.762 145.003C119.762 111.839 119.762 94.8321 89.6516 86.3286ZM64.2952 92.281L51.617 86.3286L64.2952 99.9342L76.9734 86.3286L64.2952 92.281ZM64.2952 19.1509C49.2399 19.1509 40.5236 34.4572 42.9008 51.4642C45.2779 68.4712 53.2018 80.3761 64.2952 80.3761C75.3886 80.3761 83.3125 68.4712 85.6896 51.4642C88.0668 33.6068 79.3505 19.1509 64.2952 19.1509Z" fill="black"/>
</g>
</svg>
