<svg width="491" height="127" viewBox="0 0 491 127" fill="none" xmlns="http://www.w3.org/2000/svg">
<g style="mix-blend-mode:difference">
<path d="M116.115 106.471H102.685L108.94 68.623C109.859 63.0589 112.469 57.5135 117.739 55.5059C120.494 54.4236 123.347 53.8824 126.299 53.8824H138.154V67.2633H126.299C124.888 67.2633 123.56 67.5257 122.314 68.0504C121.068 68.5751 119.985 69.2967 119.067 70.215C118.149 71.1333 117.427 72.2155 116.902 73.4618C116.378 74.708 116.115 76.0363 116.115 77.4465V106.471Z" fill="#78D6FF"/>
<path d="M198.532 79.6603C198.532 83.5958 197.827 87.269 196.417 90.6798C195.007 94.0578 193.088 96.9931 190.661 99.4856C188.234 101.945 185.381 103.897 182.101 105.34C178.854 106.75 175.362 107.455 171.623 107.455C167.917 107.455 164.424 106.75 161.144 105.34C157.898 103.897 155.044 101.945 152.585 99.4856C150.158 96.9931 148.239 94.0578 146.829 90.6798C145.419 87.269 144.714 83.5958 144.714 79.6603C144.714 75.6591 145.419 71.9532 146.829 68.5424C148.239 65.1315 150.158 62.1963 152.585 59.7366C155.044 57.2441 157.898 55.2927 161.144 53.8824C164.424 52.4722 167.917 51.7671 171.623 51.7671C175.362 51.7671 178.854 52.4394 182.101 53.7841C185.381 55.0959 188.234 56.9817 190.661 59.4414C193.088 61.8683 195.007 64.8036 196.417 68.2472C197.827 71.658 198.532 75.4623 198.532 79.6603ZM185.004 79.6603C185.004 77.4957 184.643 75.5443 183.921 73.8061C183.233 72.0351 182.282 70.5265 181.068 69.2803C179.855 68.0012 178.428 67.0337 176.788 66.3778C175.181 65.6891 173.459 65.3447 171.623 65.3447C169.786 65.3447 168.048 65.6891 166.408 66.3778C164.801 67.0337 163.391 68.0012 162.178 69.2803C160.997 70.5265 160.062 72.0351 159.373 73.8061C158.685 75.5443 158.34 77.4957 158.34 79.6603C158.34 81.6936 158.685 83.5794 159.373 85.3176C160.062 87.0558 160.997 88.5644 162.178 89.8435C163.391 91.1225 164.801 92.1392 166.408 92.8935C168.048 93.6151 169.786 93.9758 171.623 93.9758C173.459 93.9758 175.181 93.6314 176.788 92.9427C178.428 92.254 179.855 91.2865 181.068 90.0403C182.282 88.794 183.233 87.2854 183.921 85.5144C184.643 83.7434 185.004 81.792 185.004 79.6603Z" fill="#78D6FF"/>
<path d="M222.749 106.471H209.319V53.7841H212.566L216.993 60.0317C219.158 58.064 221.617 56.5553 224.372 55.5059C227.127 54.4236 229.98 53.8824 232.932 53.8824H244.788V67.2633H232.932C231.522 67.2633 230.194 67.5257 228.947 68.0504C227.701 68.5751 226.619 69.2967 225.701 70.215C224.782 71.1333 224.061 72.2155 223.536 73.4618C223.011 74.708 222.749 76.0363 222.749 77.4465V106.471Z" fill="#78D6FF"/>
<path d="M303.654 64.2624L293.815 74.1505C293.323 72.7731 292.651 71.5432 291.798 70.4609C290.945 69.3459 289.978 68.4112 288.896 67.6569C287.846 66.9025 286.698 66.3286 285.452 65.9351C284.206 65.5415 282.927 65.3447 281.615 65.3447C279.778 65.3447 278.04 65.7219 276.4 66.4762C274.793 67.2305 273.383 68.2964 272.169 69.6738C270.989 71.0185 270.054 72.6255 269.365 74.4949C268.677 76.3642 268.332 78.4304 268.332 80.6933C268.332 82.5299 268.677 84.2517 269.365 85.8587C270.054 87.4658 270.989 88.876 272.169 90.0895C273.383 91.3029 274.793 92.254 276.4 92.9427C278.04 93.6314 279.778 93.9758 281.615 93.9758C282.927 93.9758 284.189 93.7954 285.403 93.4347C286.616 93.0739 287.748 92.5656 288.797 91.9096C289.879 91.2209 290.831 90.401 291.65 89.4499C292.503 88.466 293.192 87.3838 293.717 86.2031L303.555 96.0912C302.309 97.8622 300.866 99.4528 299.226 100.863C297.619 102.273 295.865 103.47 293.963 104.454C292.093 105.438 290.109 106.176 288.01 106.668C285.944 107.193 283.812 107.455 281.615 107.455C277.909 107.455 274.416 106.766 271.136 105.389C267.89 103.979 265.036 102.06 262.577 99.6332C260.15 97.2062 258.231 94.3694 256.821 91.1225C255.411 87.8757 254.705 84.3993 254.705 80.6933C254.705 76.6594 255.411 72.8878 256.821 69.3787C258.231 65.8695 260.15 62.8194 262.577 60.2285C265.036 57.6048 267.89 55.5387 271.136 54.03C274.416 52.5214 277.909 51.7671 281.615 51.7671C283.812 51.7671 285.96 52.0459 288.059 52.6034C290.191 53.1609 292.208 53.9808 294.11 55.0631C296.045 56.1126 297.816 57.408 299.423 58.9495C301.063 60.4909 302.473 62.2619 303.654 64.2624Z" fill="#78D6FF"/>
<path d="M368.03 106.471H364.783L359.568 99.2396C358.289 100.387 356.928 101.47 355.485 102.486C354.075 103.47 352.582 104.339 351.008 105.094C349.434 105.815 347.811 106.389 346.138 106.816C344.498 107.242 342.826 107.455 341.12 107.455C337.414 107.455 333.921 106.832 330.642 105.586C327.395 104.339 324.542 102.536 322.082 100.174C319.655 97.7802 317.737 94.8613 316.326 91.4177C314.916 87.9741 314.211 84.055 314.211 79.6603C314.211 75.5607 314.916 71.8056 316.326 68.3948C317.737 64.9512 319.655 61.9995 322.082 59.5398C324.542 57.0801 327.395 55.1779 330.642 53.8333C333.921 52.4558 337.414 51.7671 341.12 51.7671C342.826 51.7671 344.515 51.9803 346.187 52.4066C347.86 52.833 349.483 53.4233 351.057 54.1776C352.632 54.9319 354.124 55.8174 355.534 56.8341C356.977 57.8508 358.322 58.9495 359.568 60.1301L364.783 53.8824H368.03V106.471ZM354.501 79.6603C354.501 77.8237 354.14 76.0527 353.419 74.3473C352.73 72.6091 351.779 71.0841 350.566 69.7722C349.352 68.4276 347.925 67.3617 346.286 66.5746C344.679 65.7547 342.957 65.3447 341.12 65.3447C339.284 65.3447 337.545 65.6563 335.906 66.2794C334.299 66.9025 332.888 67.8208 331.675 69.0343C330.494 70.2478 329.56 71.7564 328.871 73.5602C328.182 75.3312 327.838 77.3645 327.838 79.6603C327.838 81.956 328.182 84.0058 328.871 85.8096C329.56 87.5805 330.494 89.0728 331.675 90.2862C332.888 91.4997 334.299 92.418 335.906 93.0411C337.545 93.6642 339.284 93.9758 341.12 93.9758C342.957 93.9758 344.679 93.5823 346.286 92.7951C347.925 91.9752 349.352 90.9094 350.566 89.5975C351.779 88.2529 352.73 86.7278 353.419 85.0224C354.14 83.2842 354.501 81.4969 354.501 79.6603Z" fill="#78D6FF"/>
<path d="M396.037 126.542H382.509V53.7841H385.756L391.118 60.1301C392.332 58.9823 393.66 57.9 395.103 56.8833C396.546 55.8666 398.038 54.9975 399.579 54.276C401.154 53.5217 402.777 52.9314 404.45 52.505C406.122 52.0787 407.811 51.8655 409.517 51.8655C413.223 51.8655 416.699 52.5378 419.946 53.8824C423.226 55.1943 426.079 57.0637 428.506 59.4906C430.965 61.9175 432.9 64.8528 434.311 68.2964C435.721 71.7072 436.426 75.4951 436.426 79.6603C436.426 83.9894 435.721 87.8921 434.311 91.3685C432.9 94.8121 430.965 97.7474 428.506 100.174C426.079 102.568 423.226 104.405 419.946 105.684C416.699 106.963 413.223 107.603 409.517 107.603C408.336 107.603 407.155 107.471 405.975 107.209C404.827 106.947 403.679 106.602 402.531 106.176C401.416 105.717 400.301 105.209 399.186 104.651C398.104 104.093 397.054 103.52 396.037 102.929V126.542ZM422.947 79.6603C422.947 77.4301 422.586 75.4296 421.864 73.6586C421.176 71.8876 420.225 70.3953 419.011 69.1819C417.798 67.9356 416.371 66.9845 414.731 66.3286C413.092 65.6727 411.353 65.3447 409.517 65.3447C407.68 65.3447 405.942 65.6727 404.302 66.3286C402.695 66.9845 401.285 67.9356 400.071 69.1819C398.858 70.3953 397.89 71.8876 397.169 73.6586C396.48 75.4296 396.136 77.4301 396.136 79.6603C396.136 81.792 396.48 83.7434 397.169 85.5144C397.89 87.2854 398.858 88.794 400.071 90.0403C401.285 91.2865 402.695 92.254 404.302 92.9427C405.942 93.6314 407.68 93.9758 409.517 93.9758C411.353 93.9758 413.092 93.6314 414.731 92.9427C416.371 92.254 417.798 91.2865 419.011 90.0403C420.225 88.794 421.176 87.2854 421.864 85.5144C422.586 83.7434 422.947 81.792 422.947 79.6603Z" fill="#78D6FF"/>
<path d="M102.705 106.346H116.135L109.88 68.4974C108.961 62.9332 106.352 57.3881 101.081 55.3804C98.3266 54.2981 95.4733 53.757 92.5217 53.757H80.6659V67.1379H92.5217C93.9319 67.1379 95.2602 67.4002 96.5064 67.925C97.7527 68.4497 98.835 69.1712 99.7533 70.0895C100.672 71.0078 101.393 72.0901 101.918 73.3363C102.443 74.5826 102.705 75.9108 102.705 77.3211V106.346Z" fill="#78D6FF"/>
<path d="M0.615234 106.379V52.646H16.03L41.6205 94.2558L30.7395 94.155L56.6322 52.646H71.5432V106.379H56.4979V101.812C56.4979 95.6327 56.6322 90.0914 56.9009 85.1883C57.2367 80.2179 56.0949 75.3484 56.8337 70.5795L58.748 75.8185L39.3032 100.066H32.4522L13.4105 76.02L15.3247 70.5795C16.1307 75.0797 14.9889 79.7478 15.2576 84.5838C15.5934 89.3526 15.7613 95.0953 15.7613 101.812V106.379H0.615234Z" fill="#78D6FF"/>
<path d="M468.53 108.859C463.426 108.859 458.858 108.053 454.828 106.441C450.798 104.762 447.574 102.478 445.156 99.5899L455.03 91.127C457.112 93.2091 459.463 94.754 462.082 95.7615C464.702 96.7018 467.187 97.172 469.538 97.172C470.411 97.172 471.183 97.0712 471.855 96.8697C472.527 96.6682 473.098 96.3995 473.568 96.0637C474.105 95.6607 474.508 95.2241 474.777 94.754C475.046 94.2166 475.18 93.6121 475.18 92.9405C475.18 91.5971 474.609 90.5896 473.467 89.918C472.93 89.5821 471.956 89.1791 470.545 88.709C469.135 88.1716 467.321 87.6343 465.105 87.097C461.948 86.291 459.194 85.317 456.843 84.1752C454.56 83.0334 452.679 81.7236 451.201 80.246C449.858 78.9026 448.817 77.3578 448.078 75.6115C447.406 73.8651 447.071 71.9173 447.071 69.768C447.071 66.4768 448.045 63.5886 449.992 61.1035C452.007 58.6183 454.627 56.7041 457.851 55.3607C461.075 53.9502 464.567 53.245 468.329 53.245C471.284 53.245 474.072 53.5808 476.691 54.2525C479.378 54.9241 481.863 55.8645 484.147 57.0735C486.497 58.2825 488.58 59.7265 490.393 61.4057L481.829 70.977C480.687 69.8351 479.344 68.8276 477.799 67.9545C476.255 67.0141 474.71 66.2753 473.165 65.738C471.62 65.1335 470.176 64.8312 468.833 64.8312C467.825 64.8312 466.918 64.932 466.112 65.1335C465.374 65.2678 464.735 65.5365 464.198 65.9395C463.728 66.2753 463.358 66.7119 463.09 67.2492C462.821 67.7194 462.687 68.2567 462.687 68.8612C462.687 69.6 462.855 70.2717 463.191 70.8762C463.594 71.4135 464.131 71.9173 464.803 72.3875C465.407 72.7233 466.448 73.1599 467.926 73.6972C469.471 74.2345 471.486 74.839 473.971 75.5107C477.128 76.3839 479.814 77.3914 482.031 78.5332C484.314 79.6079 486.128 80.884 487.471 82.3617C488.613 83.5035 489.419 84.8469 489.889 86.3917C490.427 87.8694 490.695 89.4814 490.695 91.2277C490.695 94.6532 489.721 97.7093 487.774 100.396C485.893 103.015 483.273 105.098 479.915 106.642C476.624 108.12 472.829 108.859 468.53 108.859Z" fill="#78D6FF"/>
</g>
<circle cx="11.9099" cy="11.9099" r="11.9099" transform="matrix(1 0 0 -1 97.6504 34.5747)" fill="#E1E1E1"/>
<g style="mix-blend-mode:difference">
<rect x="128.014" y="0.506836" width="118.339" height="36.9059" rx="18.453" transform="rotate(90 128.014 0.506836)" fill="#78D6FF"/>
</g>
</svg>
